# xmcd CD database file
#
# Track frame offsets:
#	182
#	17655
#	27837
#	39565
#	55405
#	67635
#	79405
#	92280
#	107627
#	122062
#	137187
#	152205
#	170555
#
# Disc length: 2407 seconds
#
# Revision: 3
# Processed by: cddbd v1.5.2PL0 Copyright (c) Steve Scherf et al.
# Submitted via: CDex 2.03
#
DISCID=a209650d
DTITLE=John Denver - Christmas Like A Lullaby
DYEAR=1900
DGENRE=Country
TTITLE0=Christmas Like A Lullaby
TTITLE1=The First Noel
TTITLE2=Away In A Manger
TTITLE3=The Children Of Bethlehem
TTITLE4=Rudolph The Red Nosed Reindeer
TTITLE5=White Christmas
TTITLE6=Marvelous Toy
TTITLE7=Blue Christmas
TTITLE8=Jingle Bells
TTITLE9=Little Drummer Boy
TTITLE10=Mary's Boy Child
TTITLE11=The Christmas Song
TTITLE12=Have Yourself A Merry Little Christmas
EXTD=
EXTT0=
EXTT1=
EXTT2=
EXTT3=
EXTT4=
EXTT5=
EXTT6=
EXTT7=
EXTT8=
EXTT9=
EXTT10=
EXTT11=
EXTT12=
PLAYORDER=
